<svg xmlns="http://www.w3.org/2000/svg" viewBox="0 0 23.66 21.3"><defs><style>.cls-1{fill:#f2eee8;}</style></defs><title>Ресурс 1</title><g id="Слой_2" data-name="Слой 2"><g id="Layer_3" data-name="Layer 3"><path class="cls-1" d="M3.36,19.17a3.24,3.24,0,0,1-3-1.93A4.74,4.74,0,0,1,2.86,11a13.27,13.27,0,0,1,4.93-.87h0a1,1,0,0,1,0,2,11.39,11.39,0,0,0-4.14.7A2.77,2.77,0,0,0,2.2,14.36a2.68,2.68,0,0,0,0,2.08,1.24,1.24,0,0,0,1.64.62.36.36,0,0,0,.21-.27,1,1,0,0,1-.58-1.9,1.77,1.77,0,0,1,1.39,0,1.79,1.79,0,0,1,1,1A2.34,2.34,0,0,1,4.67,18.9a3.38,3.38,0,0,1-1.31.27Z"/><path class="cls-1" d="M22.66,12.15H8.52A5.79,5.79,0,0,1,2.44,6.26,6.12,6.12,0,0,1,4.16,2,6.81,6.81,0,0,1,9.23,0a4.46,4.46,0,0,1,4.46,4.46,3.08,3.08,0,0,1-3.07,3.08A2.25,2.25,0,0,1,8.37,5.29a1,1,0,0,1,2,0,.25.25,0,0,0,.25.25,1.08,1.08,0,0,0,1.07-1.08A2.46,2.46,0,0,0,9.23,2,4.91,4.91,0,0,0,5.6,3.35,4.13,4.13,0,0,0,4.44,6.26a3.77,3.77,0,0,0,4.08,3.89H22.66a1,1,0,0,1,0,2Z"/><path class="cls-1" d="M10.41,21.3a3.08,3.08,0,0,1-3.08-3.07,4.46,4.46,0,0,1,4.46-4.46H18a1,1,0,0,1,0,2H11.79a2.46,2.46,0,0,0-2.46,2.46,1.07,1.07,0,0,0,1.08,1.07.24.24,0,0,0,.24-.24,1,1,0,0,1,2,0,2.24,2.24,0,0,1-2.24,2.24Z"/></g></g></svg>