<svg xmlns="http://www.w3.org/2000/svg" viewBox="0 0 22.14 22.14"><defs><style>.cls-1{fill:#f2eee8;}</style></defs><title>Ресурс 1</title><g id="Слой_2" data-name="Слой 2"><g id="Layer_3" data-name="Layer 3"><path class="cls-1" d="M8.34,21.48h0a13.91,13.91,0,0,1-5.89-1.31A1,1,0,0,1,2,19.69,13.82,13.82,0,0,1,20.35,1.31a1,1,0,0,1,.48.48A13.86,13.86,0,0,1,18.1,17.44a13.76,13.76,0,0,1-9.76,4Zm-4.71-3a12.07,12.07,0,0,0,4.71,1h0A11.7,11.7,0,0,0,16.68,16,11.86,11.86,0,0,0,19.17,3a11.84,11.84,0,0,0-4.7-1A11.72,11.72,0,0,0,6.12,5.46,11.86,11.86,0,0,0,3.63,18.51Z"/><path class="cls-1" d="M3.39,19.25A.47.47,0,0,1,3,19.1a.48.48,0,0,1,0-.7L19.57,1.86a.5.5,0,1,1,.71.71L3.74,19.1a.49.49,0,0,1-.35.15Z"/><path class="cls-1" d="M1,22.14a1,1,0,0,1-.71-.29,1,1,0,0,1,0-1.42L2.13,18.6a1,1,0,0,1,1.41,0,1,1,0,0,1,0,1.41L1.71,21.85a1,1,0,0,1-.71.29Z"/><path class="cls-1" d="M20.05,11.13h0l-7.75-.35a.5.5,0,0,1-.48-.52.48.48,0,0,1,.52-.48l7.75.36a.5.5,0,0,1,0,1Z"/><path class="cls-1" d="M17.29,16h0l-9.84-.44A.51.51,0,0,1,7,15a.49.49,0,0,1,.52-.47l9.85.44a.5.5,0,0,1,.47.53.5.5,0,0,1-.5.47Z"/><path class="cls-1" d="M11.86,10.34a.5.5,0,0,1-.5-.47L11,2.11a.49.49,0,0,1,.47-.52h0a.51.51,0,0,1,.51.48l.35,7.75a.5.5,0,0,1-.48.52Z"/><path class="cls-1" d="M7.08,15.19a.51.51,0,0,1-.5-.48L6.14,4.87a.5.5,0,0,1,.48-.52h0a.5.5,0,0,1,.51.47l.44,9.85a.49.49,0,0,1-.47.52Z"/></g></g></svg>