<svg xmlns="http://www.w3.org/2000/svg" viewBox="0 0 15.51 23.38"><defs><style>.cls-1{fill:#9fc659;}</style></defs><title>Ресурс 1</title><g id="Слой_2" data-name="Слой 2"><g id="Isolation_Mode" data-name="Isolation Mode"><path class="cls-1" d="M15.51,13a13.91,13.91,0,0,0-1.16-5.58,15.69,15.69,0,0,0-2.54-4A16.3,16.3,0,0,0,8.1.2L7.76,0,7.41.2A16.54,16.54,0,0,0,3.7,3.41a15.69,15.69,0,0,0-2.54,4A13.91,13.91,0,0,0,0,13a7.67,7.67,0,0,0,7.07,7.65v2.76H8.44V20.62A7.67,7.67,0,0,0,15.51,13ZM2.75,7.23,7.07,9.66V14L1.53,10.92A12.8,12.8,0,0,1,2.4,8C2.51,7.72,2.63,7.47,2.75,7.23ZM8.44,9.66l4.32-2.43c.12.24.23.47.34.71a12.58,12.58,0,0,1,.88,3L8.44,14Zm2.34-5.35A16,16,0,0,1,12.08,6L8.44,8.09v-6A17.21,17.21,0,0,1,10.78,4.31Zm-6.08,0A17.11,17.11,0,0,1,7.07,2.1v6L3.43,6A16.68,16.68,0,0,1,4.7,4.34ZM1.37,13c0-.19,0-.38,0-.57l5.69,3.2v3.64A6.29,6.29,0,0,1,1.37,13Zm7.07,6.27V15.6l5.69-3.2c0,.19,0,.38,0,.57A6.29,6.29,0,0,1,8.44,19.24Z"/></g></g></svg>