<svg xmlns="http://www.w3.org/2000/svg" viewBox="0 0 16.85 23.45"><defs><style>.cls-1{fill:#f2eee8;}</style></defs><title>Ресурс 1</title><g id="Слой_2" data-name="Слой 2"><g id="Layer_3" data-name="Layer 3"><path class="cls-1" d="M8.43,3.16c2.15,2.38,6.42,7.28,6.42,10.84,0,2.86-1.75,7.41-6.41,7.45S2,16.86,2,14C2,10.44,6.27,5.55,8.43,3.16M8.43,0s0,0,0,.09,0-.08,0-.09Zm0,.09C8,1,0,8.25,0,14c0,4.31,2.78,9.4,8.43,9.45s8.42-5.14,8.42-9.45c0-5.75-8-13-8.42-13.91Z"/><path class="cls-1" d="M8.43,19.44h0c-3.63,0-4.95-3.5-4.95-5.81a.41.41,0,0,1,.41-.42h0a.41.41,0,0,1,.42.42c0,2,1.11,4.94,4.13,5a.42.42,0,1,1,0,.83Z"/></g></g></svg>